<?xml version="1.0" encoding="UTF-8" standalone="no"?><!DOCTYPE svg PUBLIC "-//W3C//DTD SVG 1.1//EN" "http://www.w3.org/Graphics/SVG/1.1/DTD/svg11.dtd"><svg width="100%" height="100%" viewBox="0 0 1067 1067" version="1.1" xmlns="http://www.w3.org/2000/svg" xmlns:xlink="http://www.w3.org/1999/xlink" xml:space="preserve" xmlns:serif="http://www.serif.com/" style="fill-rule:evenodd;clip-rule:evenodd;stroke-linejoin:round;stroke-miterlimit:2;"><g><path d="M866.787,372.185l-137.469,-0l-0,172.186c-0,67.888 -55.863,123.75 -123.75,123.75l-230.702,0l-0,27.998c0.153,58.461 48.211,106.519 106.671,106.672l284.458,-0l53.756,55.995c4.071,4.314 9.747,6.762 15.678,6.762c11.827,0 21.559,-9.732 21.559,-21.558c-0,-0.014 -0,-0.028 -0,-0.042l-0,-41.437l9.799,-0c58.566,0 106.798,-48.106 106.952,-106.672l-0,-216.703c-0,-58.671 -48.28,-106.951 -106.952,-106.951Z" style="fill:#8aacc8;fill-rule:nonzero;"/><clipPath id="_clip1"><path d="M866.787,372.185l-137.469,-0l-0,172.186c-0,67.888 -55.863,123.75 -123.75,123.75l-230.702,0l-0,27.998c0.153,58.461 48.211,106.519 106.671,106.672l284.458,-0l53.756,55.995c4.071,4.314 9.747,6.762 15.678,6.762c11.827,0 21.559,-9.732 21.559,-21.558c-0,-0.014 -0,-0.028 -0,-0.042l-0,-41.437l9.799,-0c58.566,0 106.798,-48.106 106.952,-106.672l-0,-216.703c-0,-58.671 -48.28,-106.951 -106.952,-106.951Z" clip-rule="nonzero"/></clipPath><g clip-path="url(#_clip1)"><path d="M729.318,550.531c-3.122,65.495 -57.901,117.665 -123.47,117.59l-230.982,0l-0,27.998c0.153,58.461 48.211,106.519 106.671,106.672c0.467,0.002 0.934,0.004 1.4,0.004c135.161,-0 246.381,-111.22 246.381,-246.381l-0,-5.883Z" style="fill:#4d7ca3;fill-rule:nonzero;"/></g><path d="M209.679,631.444l-7.61,0c-60.236,0 -109.141,-48.904 -109.141,-109.141l0,-212.043c0,-60.237 48.905,-109.142 109.141,-109.142l380.591,0c60.236,0 109.141,48.905 109.141,109.142l-0,212.043c-0,60.237 -48.905,109.141 -109.141,109.141l-281.627,0l-54.117,56.836c-4.071,4.314 -9.747,6.762 -15.679,6.762c-11.826,-0 -21.558,-9.732 -21.558,-21.559l-0,-42.039Z" style="fill:#e5ecf3;"/></g></svg>