<?xml version="1.0" encoding="UTF-8" standalone="no"?><!DOCTYPE svg PUBLIC "-//W3C//DTD SVG 1.1//EN" "http://www.w3.org/Graphics/SVG/1.1/DTD/svg11.dtd"><svg width="100%" height="100%" viewBox="0 0 4446 4446" version="1.1" xmlns="http://www.w3.org/2000/svg" xmlns:xlink="http://www.w3.org/1999/xlink" xml:space="preserve" xmlns:serif="http://www.serif.com/" style="fill-rule:evenodd;clip-rule:evenodd;stroke-linejoin:round;stroke-miterlimit:2;"><g><path d="M1061.92,1456.26l2321.98,-0c341.065,-0 621.72,280.654 621.72,621.719l-0,1615.58c-0,117.356 -96.57,213.925 -213.925,213.925l-3137.57,-0c-117.356,-0 -213.925,-96.569 -213.925,-213.925l0,-1615.58c0,-341.065 280.655,-621.719 621.72,-621.719Z" style="fill:#e5ecf3;fill-rule:nonzero;"/><path d="M4005.62,3693.56l-0,-1763.4c-0.407,-260.102 -214.544,-473.904 -474.647,-473.903l-1290.24,-0c-180.5,499.901 -342.429,997.574 -342.429,1054.03l-0,307.518c0.154,68.452 36.691,131.897 95.82,166.386l1428.4,824.503c112.981,64.936 241.086,99.012 371.398,98.792c116.512,-1.214 211.703,-97.407 211.697,-213.925Z" style="fill:#4d7ca3;fill-rule:nonzero;"/><path d="M4005.62,1962.85c0.13,-258.284 -138.061,-497.777 -361.742,-626.919l-1346.69,-777.707c-45.907,-26.505 -102.652,-26.505 -148.559,-0l-1346.69,777.707c-223.681,129.142 -361.872,368.635 -361.742,626.919c0.13,258.284 0,0 0,4.457l0,8.914c-0.038,68.306 36.589,131.622 95.821,165.643l1612.61,932.951c45.907,26.505 102.652,26.505 148.559,0l1612.61,-931.466c59.692,-34.281 96.393,-98.295 95.821,-167.128l-0,-10.4c-0,-3.714 -0,-1.485 -0,-2.971Z" style="fill:#8aacc8;fill-rule:nonzero;"/><path d="M2222.91,2159.69c-138.952,-0 -253.293,-114.341 -253.293,-253.293c0,-138.953 114.341,-253.294 253.293,-253.294c138.953,0 253.294,114.341 253.294,253.294c-0,138.952 -114.341,253.293 -253.294,253.293Zm0,-358.027c-57.455,-0 -104.734,47.278 -104.734,104.734c0,57.455 47.279,104.734 104.734,104.734c57.456,-0 104.735,-47.279 104.735,-104.734c-0,-57.456 -47.279,-104.734 -104.735,-104.734Z" style="fill:#fff;fill-rule:nonzero;"/><path d="M2222.91,2487.26c-0.247,0 -0.495,0 -0.742,0c-318.654,0 -580.866,-262.212 -580.866,-580.866c-0,-318.654 262.212,-580.866 580.866,-580.866c318.653,0 580.865,262.212 580.866,580.866c-0,40.748 -33.531,74.279 -74.28,74.279c-40.748,0 -74.279,-33.531 -74.279,-74.279c-0,-0.046 -0,-0.092 -0,-0.139c-0,-237.156 -195.151,-432.307 -432.307,-432.307c-237.157,0 -432.307,195.151 -432.307,432.307c-0,237.157 195.15,432.307 432.307,432.307c91.565,0 180.805,-29.091 254.778,-83.054c12.729,-9.272 28.078,-14.269 43.825,-14.269c40.834,-0 74.436,33.601 74.436,74.435c-0,23.776 -11.392,46.168 -30.611,60.166c-99.046,72.688 -218.83,111.748 -341.686,111.42Z" style="fill:#fff;fill-rule:nonzero;"/><path d="M2565.34,2159.69c-130.803,-0 -238.437,-107.634 -238.437,-238.437l148.559,-4.457l-0,4.457c-0.248,2.713 -0.372,5.437 -0.372,8.162c0,49.306 40.573,89.878 89.879,89.878c49.305,0 89.878,-40.572 89.878,-89.878c0,-2.725 -0.124,-5.449 -0.371,-8.162l-0,-14.856l148.559,-0l-0,14.856c0,130.522 -107.173,238.03 -237.695,238.437Z" style="fill:#fff;fill-rule:nonzero;"/></g></svg>