<?xml version="1.0" encoding="UTF-8" standalone="no"?><!DOCTYPE svg PUBLIC "-//W3C//DTD SVG 1.1//EN" "http://www.w3.org/Graphics/SVG/1.1/DTD/svg11.dtd"><svg width="100%" height="100%" viewBox="0 0 1067 1067" version="1.1" xmlns="http://www.w3.org/2000/svg" xmlns:xlink="http://www.w3.org/1999/xlink" xml:space="preserve" xmlns:serif="http://www.serif.com/" style="fill-rule:evenodd;clip-rule:evenodd;stroke-linejoin:round;stroke-miterlimit:2;"><path d="M76.677,502.504c46.498,-224.136 266.219,-368.356 490.356,-321.858c224.136,46.498 368.356,266.219 321.858,490.355c-46.498,224.136 -266.219,368.356 -490.355,321.858c-224.137,-46.498 -368.357,-266.219 -321.859,-490.355Z" style="fill:#e5ecf3;"/><path d="M383.457,701.931c-0,29.678 24.421,54.099 54.098,54.099l5.429,-0c29.711,-0 54.187,-24.388 54.293,-54.099l-0,-231.517c-0.035,-40.169 15.874,-78.755 44.209,-107.227c28.449,-28.333 44.442,-66.882 44.403,-107.033l0,-70.58c-211.353,-56.008 -432.382,65.381 -498.518,273.788c-7.202,23.079 -0.905,48.345 16.287,65.344l42.852,42.852c10.261,10.292 24.248,16.026 38.781,15.9c65.39,-0.152 128.222,25.749 174.51,71.937l8.144,8.144c9.965,10.288 15.533,24.069 15.512,38.392Z" style="fill:#b7cbdb;fill-rule:nonzero;"/><path d="M687.493,472.557c0,-4.714 -3.827,-8.542 -8.542,-8.542l-84.52,0c-4.714,0 -8.542,3.828 -8.542,8.542l0,84.521c0,4.714 3.828,8.541 8.542,8.541l84.52,0c4.715,0 8.542,-3.827 8.542,-8.541l0,-84.521Z" style="fill:#b7cbdb;"/><path d="M891.671,652.875l-72.519,-0c-24.306,0.004 -47.631,9.711 -64.763,26.952l-15.512,15.512c-9.432,9.235 -14.748,21.896 -14.737,35.096l0,11.828c0.001,27.37 -22.462,49.92 -49.832,50.026c-27.337,0 -49.833,22.495 -49.833,49.833l0,134.567c140.966,-51.495 243.401,-175.636 267.196,-323.814Z" style="fill:#b7cbdb;fill-rule:nonzero;"/><path d="M802.67,652.875c-0.001,19.89 -16.369,36.257 -36.259,36.257c-19.892,-0 -36.26,-16.368 -36.26,-36.26c0,-19.744 16.128,-36.046 35.872,-36.257c0.129,-0.001 0.258,-0.002 0.388,-0.002c19.891,0 36.259,16.368 36.259,36.259c0,0.001 0,0.002 0,0.003Z" style="fill:#fff;fill-rule:nonzero;"/><path d="M605.279,700.186c-10.637,0 -19.39,-8.753 -19.39,-19.39c0,-10.637 8.753,-19.39 19.39,-19.39c10.637,0 19.39,8.753 19.39,19.39c0,10.637 -8.753,19.39 -19.39,19.39Z" style="fill:#b7cbdb;fill-rule:nonzero;"/><path d="M738.683,451.024c-10.637,-0 -19.39,-8.753 -19.39,-19.39c-0,-10.637 8.753,-19.39 19.39,-19.39c10.637,-0 19.39,8.753 19.39,19.39c-0,10.637 -8.753,19.39 -19.39,19.39Z" style="fill:#ccddda;fill-rule:nonzero;"/><path d="M378.222,987.547l-0,-33.545c-0,-63.822 -52.518,-116.34 -116.341,-116.34l-108.778,-0c56.174,73.697 135.457,126.484 225.119,149.885Z" style="fill:#b7cbdb;fill-rule:nonzero;"/><path d="M998.704,298.036c-0,-0.087 -0,-0.175 -0,-0.262c-0,-127.645 -105.036,-232.681 -232.681,-232.681c-3.686,-0 -7.371,0.088 -11.052,0.263c-115.235,10.232 -207.994,101.358 -220.272,216.393c-5.265,75.719 27.029,149.378 86.286,196.809c55.22,42.985 100.803,97.09 133.792,158.805l6.786,12.991c0.922,1.827 2.801,2.984 4.848,2.984c2.046,0 3.926,-1.157 4.847,-2.984l4.072,-7.562c33.244,-63.533 79.493,-119.362 135.731,-163.846c55.244,-43.747 87.555,-110.441 87.643,-180.91Z" style="fill:#4d7ca3;fill-rule:nonzero;"/><path d="M844.747,303.66c-0,42.548 -35.012,77.56 -77.561,77.56c-42.548,-0 -77.56,-35.012 -77.56,-77.56c0,-42.549 35.012,-77.561 77.56,-77.561c42.549,0 77.561,35.012 77.561,77.561Z" style="fill:#e5ecf3;fill-rule:nonzero;"/></svg>