<?xml version="1.0" encoding="UTF-8"?>
<svg id="Calque_1" data-name="Calque 1" xmlns="http://www.w3.org/2000/svg" viewBox="0 0 475.54 757.62">
  <defs>
    <style>
      .cls-1 {
        fill: #cccdce;
        stroke: #444;
        stroke-linecap: round;
        stroke-linejoin: round;
      }

      .cls-2 {
        fill: #1d959b;
      }

      .cls-2, .cls-3 {
        stroke: #0e273a;
        stroke-miterlimit: 10;
      }

      .cls-3 {
        fill: #7ac9d6;
      }
    </style>
  </defs>
  <path class="cls-2" d="m19.83,482.23s23.65,40.22,99.83,32.67c61.79-6.12,84.05-30.76,163.66-17.96,79.6,12.81,127.24-46.48,127.24-46.48l-195.71-93.66-122.46,34.92-72.55,90.5Z"/>
  <path class="cls-1" d="m201.49,757.12v-357.99h50.78v54.82s.99,26.19,9.89,16.55c8.91-9.64,34.51-47.01,34.51-47.01l6.68,2.78-23.94,48.45s-17.26,28.58-19.48,55.68c-2.23,27.1,0,226.71,0,226.71h-58.45Z"/>
  <path class="cls-3" d="m192.02.56s-52.33-4.45-83.5,66.24c-31.17,70.69-24.49,74.03-50.66,104.09-26.16,30.06-35.63,48.99-33.4,73.48s35.07,45.09,18.93,84.61-65.68,95.74-30.62,144.73c35.07,48.99,95.74,23.38,117.45,13.36,21.71-10.02,77.37-66.52,153.08-36.6,75.7,29.92,85.41,33.8,110.22,14.99,36.85-27.96,103.01-112.54,74.62-164.86-28.39-52.33-84.64-48.97-85.2-94.07-.4-32.33,20.04-37.85,4.45-67.91-15.59-30.06-80.16-31.17-97.97-61.79C271.62,46.2,247.69,1.11,192.02.56Z"/>
</svg>