<?xml version="1.0" encoding="UTF-8" standalone="no"?>
<!DOCTYPE svg PUBLIC "-//W3C//DTD SVG 1.1//EN" "http://www.w3.org/Graphics/SVG/1.1/DTD/svg11.dtd">
<svg width="100%" height="100%" viewBox="0 0 1280 720" version="1.1" xmlns="http://www.w3.org/2000/svg" xmlns:xlink="http://www.w3.org/1999/xlink" xml:space="preserve" xmlns:serif="http://www.serif.com/" style="fill-rule:evenodd;clip-rule:evenodd;stroke-linejoin:round;stroke-miterlimit:2;">
    <g transform="matrix(4.79999,0,0,2.7,0,0)">
        <rect x="0" y="0" width="266.667" height="266.667" style="fill:rgb(230,233,240);"/>
    </g>
    <path id="path2279" d="M773.698,167.674C812.512,214.16 835.877,273.976 835.877,339.207C835.877,466.711 746.604,573.529 627.207,600.511C622.347,588.815 622.358,581.082 624.011,564.492C625.506,549.495 627.934,519.978 629.408,498.897C631.958,462.422 649.126,367.601 654.077,362.651C655.361,361.366 665.475,356.87 676.553,352.658C702.329,342.859 766.146,300.902 769.814,291.343C771.355,287.327 769.116,274.173 764.838,262.112C748.618,216.382 749.175,204.634 768.986,174.62C770.631,172.128 772.194,169.816 773.698,167.674Z" style="fill:rgb(77,124,163);fill-rule:nonzero;"/>
    <path d="M772.03,170.083C789.898,143.942 798.745,140.902 833.609,144.784C868.966,148.721 880.409,154.119 884.037,168.574C888.15,184.964 883.139,232.922 876.633,239.428C873.847,242.214 871.575,255.382 871.584,268.689C871.607,298.87 885.389,324.025 901.902,324.025C917.826,324.025 937.935,335.021 959.797,355.682C977.984,372.871 978.662,374.672 981.985,414.596C986.695,471.183 1001.27,520.29 1016.37,530.47C1022.13,534.349 1021.92,546.608 1015.51,580.345C1012.51,596.155 1009.12,615.514 1007.98,623.365C1006.83,631.216 1001.54,643.525 996.221,650.719C990.903,657.913 986.551,666.944 986.551,670.788C986.551,684.243 980.485,693.347 966.806,700.42L953.014,707.553L953.014,720L699.721,720C699.7,715.545 699.666,712.629 699.618,711.5C699.286,703.599 691.113,690.599 677.634,676.531C665.833,664.214 648.329,640.102 638.736,622.948C633.218,613.081 629.458,606.037 627.002,600.012L627.207,600.511C746.604,573.529 835.877,466.711 835.877,339.207C835.877,273.976 812.512,214.16 773.698,167.674C773.15,168.454 772.594,169.257 772.03,170.083Z" style="fill:rgb(138,172,200);"/>
    <path d="M311.591,261.453C367.694,284.765 407.194,340.121 407.194,404.629C407.194,446.455 390.589,484.432 363.622,512.319C324.011,465.609 300.113,405.177 300.113,339.207C300.113,312.165 304.128,286.054 311.591,261.453Z" style="fill:rgb(138,172,200);"/>
    <path d="M363.622,512.319C335.433,541.47 295.927,559.603 252.22,559.603C166.688,559.603 97.246,490.162 97.246,404.629C97.246,319.097 166.688,249.655 252.22,249.655C273.355,249.655 293.508,253.895 311.881,261.574L311.591,261.453C304.128,286.054 300.113,312.165 300.113,339.207C300.113,405.177 324.011,465.609 363.622,512.319Z" style="fill:rgb(77,124,163);"/>
    <path d="M311.257,262.563C344.246,152.02 446.771,71.324 567.995,71.324C650.613,71.324 724.545,108.806 773.698,167.674C772.194,169.816 770.631,172.128 768.986,174.62C749.175,204.634 748.618,216.382 764.838,262.112C769.116,274.173 771.355,287.327 769.814,291.343C766.146,300.902 702.329,342.859 676.553,352.658C665.475,356.87 655.361,361.366 654.077,362.651C649.126,367.601 631.958,462.422 629.408,498.897C627.934,519.978 625.506,549.495 624.011,564.492C622.358,581.082 622.347,588.815 627.207,600.511C608.156,604.816 588.339,607.089 567.995,607.089C433.159,607.089 369.384,518.33 363.622,512.319C390.589,484.432 407.194,446.455 407.194,404.629C407.194,340.121 367.694,284.765 311.591,261.453L311.257,262.563Z" style="fill:rgb(183,203,219);"/>
</svg>
