<?xml version="1.0" encoding="UTF-8" standalone="no"?>
<!DOCTYPE svg PUBLIC "-//W3C//DTD SVG 1.1//EN" "http://www.w3.org/Graphics/SVG/1.1/DTD/svg11.dtd">
<svg width="100%" height="100%" viewBox="0 0 1143 347" version="1.1" xmlns="http://www.w3.org/2000/svg" xmlns:xlink="http://www.w3.org/1999/xlink" xml:space="preserve" xmlns:serif="http://www.serif.com/" style="fill-rule:evenodd;clip-rule:evenodd;stroke-linejoin:round;stroke-miterlimit:2;">
    <g id="Calque-1" serif:id="Calque 1" transform="matrix(4.16667,0,0,4.16667,-109,-91)">
        <g transform="matrix(1,0,0,1,48.8393,41.6564)">
            <path d="M0,8.868C-0.595,13.822 -4.657,17.489 -9.909,17.489C-17.737,17.489 -21.899,11.147 -21.899,4.607C-21.899,-2.776 -16.845,-8.621 -10.157,-8.621C-4.36,-8.621 -0.892,-4.559 -0.496,-0.893L-3.766,-0.398C-4.063,-2.379 -6.193,-5.5 -10.157,-5.5C-14.864,-5.5 -18.233,-1.338 -18.233,4.557C-18.233,9.809 -15.607,14.169 -10.107,14.169C-5.995,14.169 -3.617,11.196 -3.369,8.223L0,8.868Z" style="fill:rgb(34,74,154);fill-rule:nonzero;"/>
        </g>
        <g transform="matrix(1,0,0,1,136.817,55.0343)">
            <path d="M0,-8.92C0,-14.122 -2.874,-18.73 -7.729,-18.73C-12.485,-18.73 -15.854,-14.122 -15.854,-8.969C-15.854,-3.568 -12.584,0.544 -7.63,0.544C-3.022,0.544 0,-3.47 0,-8.92M-15.26,-21.604L-15.26,-18.185C-13.328,-20.612 -10.553,-21.999 -7.432,-21.999C-0.496,-21.999 3.865,-16.5 3.865,-8.92C3.865,-1.141 -1.239,4.16 -7.283,4.16C-10.553,4.16 -13.328,2.823 -15.26,0.593L-15.26,13.079L-18.926,13.079L-18.926,-21.604L-15.26,-21.604Z" style="fill:rgb(34,74,154);fill-rule:nonzero;"/>
        </g>
        <g transform="matrix(1,0,0,1,148.059,48.8395)">
            <path d="M0,-5.4L14.666,-5.4C14.318,-9.215 11.742,-12.535 7.729,-12.535C3.369,-12.535 0.594,-9.264 0,-5.4M-3.914,-2.576C-3.914,-10.107 0.743,-15.656 7.729,-15.656C13.526,-15.656 18.827,-10.652 18.628,-2.427L-0.248,-2.427C-0.248,3.568 3.22,7.036 7.877,7.036C11.544,7.036 14.417,4.261 14.863,1.14L18.282,1.883C17.687,6.144 13.526,10.256 7.877,10.256C0.693,10.256 -3.914,4.707 -3.914,-2.576" style="fill:rgb(34,74,154);fill-rule:nonzero;"/>
        </g>
        <g transform="matrix(1,0,0,1,171.886,58.3029)">
            <path d="M0,-24.921L3.468,-24.921L3.468,-21.651C4.707,-23.633 7.481,-25.317 10.603,-25.317C14.318,-25.317 17.638,-22.147 17.638,-17.589L14.22,-16.994C14.22,-19.867 12.733,-22.147 9.958,-22.147C6.589,-22.147 3.468,-18.728 3.468,-14.517L3.468,0.396L0,0.396L0,-24.921Z" style="fill:rgb(34,74,154);fill-rule:nonzero;"/>
        </g>
        <g transform="matrix(1,0,0,1,201.361,36.2554)">
            <path d="M0,19.521C3.567,19.57 7.68,16.201 7.729,11.841L7.729,10.107C-3.071,10.355 -5.45,12.881 -5.549,15.507C-5.648,18.183 -3.121,19.521 0,19.521M-9.216,16.152C-9.216,12.634 -8.076,7.729 7.68,6.986L7.68,6.391C7.68,1.684 4.459,-0.199 1.14,-0.199C-2.328,-0.199 -5.004,2.675 -5.104,5.053L-8.423,4.31C-8.423,1.139 -4.657,-3.27 1.437,-3.27C6.986,-3.27 11.346,0.297 11.346,6.986L11.346,22.444L7.729,22.444L7.729,17.787C6.639,20.016 4.112,22.791 -1.04,22.791C-6.242,22.791 -9.216,19.669 -9.216,16.152" style="fill:rgb(36,75,153);fill-rule:nonzero;"/>
        </g>
        <g transform="matrix(1,0,0,1,235.099,52.5557)">
            <path d="M0,-19.125L0,-16.251L-11.197,-16.251L-11.197,-3.766C-11.197,0.644 -9.811,3.27 -6.441,3.27C-4.36,3.27 -2.131,1.536 -1.635,-2.676L1.338,-2.031C1.387,2.676 -2.229,6.49 -6.49,6.49C-11.842,6.49 -14.814,2.676 -14.765,-4.261L-14.765,-16.251L-18.679,-16.251L-18.679,-19.125L-14.765,-19.125L-14.765,-22.741L-14.765,-21.998L-14.765,-25.615L-11.147,-25.615L-11.197,-19.125L0,-19.125Z" style="fill:rgb(34,74,154);fill-rule:nonzero;"/>
        </g>
        <g transform="matrix(1,0,0,1,0,-48.335)">
            <path d="M241.981,81.766L245.697,81.766L245.697,107.035L241.981,107.035L241.981,81.766ZM243.814,71.015C245.4,71.015 246.49,72.105 246.49,73.69C246.49,75.275 245.4,76.365 243.814,76.365C242.229,76.365 241.14,75.275 241.14,73.69C241.14,72.105 242.229,71.015 243.814,71.015" style="fill:rgb(34,74,154);fill-rule:nonzero;"/>
        </g>
        <g transform="matrix(1,0,0,1,254.019,58.6997)">
            <path d="M0,-25.269L8.72,-3.32L17.391,-25.269L21.255,-25.269L11.247,0L6.144,0L-3.864,-25.269L0,-25.269Z" style="fill:rgb(34,74,154);fill-rule:nonzero;"/>
        </g>
        <g transform="matrix(1,0,0,1,280.225,48.8395)">
            <path d="M0,-5.4L14.665,-5.4C14.318,-9.215 11.742,-12.535 7.729,-12.535C3.369,-12.535 0.594,-9.264 0,-5.4M-3.914,-2.576C-3.914,-10.107 0.743,-15.656 7.729,-15.656C13.525,-15.656 18.827,-10.652 18.629,-2.427L-0.248,-2.427C-0.248,3.568 3.22,7.036 7.877,7.036C11.544,7.036 14.417,4.261 14.863,1.14L18.282,1.883C17.687,6.144 13.525,10.256 7.877,10.256C0.693,10.256 -3.914,4.707 -3.914,-2.576" style="fill:rgb(34,74,154);fill-rule:nonzero;"/>
        </g>
        <g transform="matrix(1,0,0,1,48.8393,85.7321)">
            <path d="M0,8.868C-0.595,13.822 -4.657,17.489 -9.909,17.489C-17.737,17.489 -21.899,11.147 -21.899,4.607C-21.899,-2.776 -16.845,-8.621 -10.157,-8.621C-4.36,-8.621 -0.892,-4.559 -0.496,-0.893L-3.766,-0.397C-4.063,-2.379 -6.193,-5.5 -10.157,-5.5C-14.864,-5.5 -18.233,-1.338 -18.233,4.557C-18.233,9.809 -15.607,14.169 -10.107,14.169C-5.995,14.169 -3.617,11.196 -3.369,8.223L0,8.868Z" style="fill:rgb(34,74,154);fill-rule:nonzero;"/>
        </g>
        <g transform="matrix(1,0,0,1,61.6674,80.3311)">
            <path d="M0,19.521C3.567,19.57 7.679,16.201 7.729,11.841L7.729,10.107C-3.072,10.355 -5.45,12.881 -5.549,15.507C-5.648,18.183 -3.122,19.521 0,19.521M-9.216,16.152C-9.216,12.634 -8.076,7.729 7.679,6.986L7.679,6.391C7.679,1.684 4.459,-0.199 1.139,-0.199C-2.329,-0.199 -5.004,2.675 -5.104,5.053L-8.423,4.31C-8.423,1.139 -4.657,-3.27 1.437,-3.27C6.986,-3.27 11.346,0.297 11.346,6.986L11.346,22.444L7.729,22.444L7.729,17.787C6.639,20.016 4.112,22.791 -1.041,22.791C-6.243,22.791 -9.216,19.669 -9.216,16.152" style="fill:rgb(34,74,154);fill-rule:nonzero;"/>
        </g>
        <g transform="matrix(1,0,0,1,79.1523,102.378)">
            <path d="M0,-24.921L3.468,-24.921L3.468,-21.651C4.707,-23.633 7.481,-25.317 10.603,-25.317C14.319,-25.317 17.638,-22.147 17.638,-17.589L14.22,-16.994C14.22,-19.867 12.733,-22.147 9.958,-22.147C6.589,-22.147 3.468,-18.728 3.468,-14.517L3.468,0.396L0,0.396L0,-24.921Z" style="fill:rgb(34,74,154);fill-rule:nonzero;"/>
        </g>
        <g transform="matrix(1,0,0,1,119.429,81.3709)">
            <path d="M0,8.572C0,3.122 -3.022,-0.891 -7.63,-0.891C-12.584,-0.891 -15.854,3.22 -15.854,8.622C-15.854,13.774 -12.485,18.283 -7.729,18.283C-2.874,18.283 0,13.774 0,8.572M-18.778,21.404L-18.778,-13.278L-15.062,-13.278L-15.062,-0.644C-13.129,-2.873 -10.454,-4.36 -7.382,-4.36C-1.338,-4.36 3.765,0.942 3.765,8.72C3.765,16.45 -0.545,21.85 -7.68,21.85C-10.801,21.85 -13.278,20.512 -15.062,18.481L-15.062,21.404L-18.778,21.404Z" style="fill:rgb(34,74,154);fill-rule:nonzero;"/>
        </g>
        <g transform="matrix(1,0,0,1,138.797,100.1)">
            <path d="M0,-19.968C-5.153,-19.968 -7.977,-15.509 -7.977,-10.108C-7.977,-4.955 -5.054,-0.199 -0.099,-0.199C4.954,-0.199 7.877,-4.955 7.877,-10.157C7.877,-15.608 4.806,-19.968 0,-19.968M0.148,-23.089C6.193,-23.089 11.544,-17.787 11.544,-10.009C11.544,-2.28 7.035,3.121 -0.099,3.121C-6.887,3.121 -11.644,-2.28 -11.644,-10.009C-11.644,-18.035 -6.392,-23.089 0.148,-23.089" style="fill:rgb(34,74,154);fill-rule:nonzero;"/>
        </g>
        <g transform="matrix(1,0,0,1,155.143,102.33)">
            <path d="M0,-24.824L3.567,-24.824L3.567,-20.562C3.617,-20.662 3.617,-20.712 3.667,-20.761C5.4,-23.733 8.423,-25.269 11.94,-25.269C17.043,-25.269 21.156,-21.009 21.156,-14.518L21.156,0.445L17.49,0.445L17.49,-14.27C17.49,-18.878 15.26,-21.95 10.999,-21.95C6.937,-21.95 3.567,-17.887 3.567,-13.131L3.567,0.445L0,0.445L0,-24.824Z" style="fill:rgb(34,74,154);fill-rule:nonzero;"/>
        </g>
        <g transform="matrix(1,0,0,1,183.974,92.9152)">
            <path d="M0,-5.4L14.666,-5.4C14.318,-9.215 11.742,-12.535 7.729,-12.535C3.369,-12.535 0.595,-9.264 0,-5.4M-3.914,-2.576C-3.914,-10.107 0.743,-15.656 7.729,-15.656C13.526,-15.656 18.827,-10.652 18.629,-2.427L-0.248,-2.427C-0.248,3.568 3.221,7.036 7.878,7.036C11.544,7.036 14.418,4.261 14.863,1.14L18.282,1.883C17.687,6.144 13.526,10.256 7.878,10.256C0.693,10.256 -3.914,4.707 -3.914,-2.576" style="fill:rgb(34,74,154);fill-rule:nonzero;"/>
        </g>
        <g transform="matrix(0.970446,-0.24132,-0.24132,-0.970446,148.714,28.6058)">
            <rect x="0.182" y="-1.485" width="12.775" height="3.072" style="fill:rgb(34,74,154);"/>
        </g>
        <g transform="matrix(57.7708,0,0,-57.7708,54.1607,48.901)">
            <path d="M0.181,0.27C0.153,0.262 0.125,0.251 0.101,0.234C0.077,0.218 0.055,0.196 0.039,0.17C0.022,0.145 0.011,0.116 0.004,0.085C-0.003,0.054 -0,0.022 0.007,-0.01C0.014,-0.041 0.029,-0.071 0.049,-0.097C0.091,-0.147 0.155,-0.178 0.22,-0.18C0.252,-0.182 0.284,-0.175 0.314,-0.163C0.329,-0.157 0.342,-0.15 0.356,-0.14C0.37,-0.13 0.381,-0.12 0.39,-0.11C0.399,-0.101 0.406,-0.092 0.412,-0.084L0.421,-0.073C0.424,-0.07 0.428,-0.067 0.431,-0.063C0.446,-0.05 0.465,-0.04 0.485,-0.037C0.526,-0.034 0.57,-0.053 0.598,-0.083C0.613,-0.099 0.629,-0.12 0.653,-0.137C0.784,-0.228 0.978,-0.148 0.997,0.015C1.008,0.077 0.989,0.146 0.947,0.194C0.927,0.219 0.902,0.239 0.873,0.253C0.843,0.266 0.811,0.272 0.78,0.271C0.748,0.27 0.717,0.26 0.69,0.248L0.671,0.237C0.664,0.233 0.658,0.229 0.652,0.225C0.641,0.216 0.63,0.207 0.621,0.199C0.606,0.184 0.59,0.166 0.571,0.156C0.554,0.147 0.533,0.145 0.515,0.144C0.494,0.143 0.474,0.147 0.455,0.155C0.437,0.162 0.421,0.175 0.404,0.191L0.378,0.216C0.369,0.225 0.357,0.235 0.346,0.242C0.322,0.258 0.294,0.268 0.266,0.273C0.255,0.275 0.243,0.276 0.231,0.276C0.214,0.276 0.197,0.274 0.181,0.27ZM0.223,-0.044C0.207,-0.041 0.193,-0.035 0.18,-0.027C0.166,-0.019 0.155,-0.008 0.145,0.004C0.136,0.016 0.127,0.029 0.121,0.044C0.115,0.06 0.114,0.076 0.113,0.093C0.112,0.111 0.116,0.128 0.124,0.144C0.131,0.161 0.142,0.176 0.157,0.188C0.171,0.201 0.188,0.211 0.207,0.215C0.226,0.22 0.246,0.221 0.265,0.218C0.285,0.215 0.304,0.208 0.321,0.198C0.329,0.193 0.336,0.188 0.345,0.18L0.371,0.155C0.389,0.138 0.411,0.119 0.437,0.107C0.496,0.081 0.571,0.077 0.628,0.109C0.651,0.122 0.672,0.139 0.697,0.148C0.728,0.16 0.764,0.16 0.795,0.147C0.82,0.138 0.84,0.12 0.856,0.099C0.859,0.095 0.862,0.09 0.865,0.086C0.907,0.012 0.867,-0.091 0.785,-0.113C0.75,-0.123 0.709,-0.116 0.679,-0.096C0.662,-0.087 0.648,-0.07 0.629,-0.052C0.59,-0.012 0.536,0.015 0.48,0.016C0.453,0.017 0.424,0.017 0.395,0.01C0.388,0.008 0.381,0.006 0.373,0.003C0.366,0.001 0.359,-0.003 0.352,-0.006C0.339,-0.013 0.328,-0.02 0.319,-0.026C0.3,-0.039 0.29,-0.042 0.272,-0.045C0.264,-0.046 0.257,-0.047 0.25,-0.047C0.241,-0.047 0.232,-0.046 0.223,-0.044Z" style="fill:url(#_Linear1);fill-rule:nonzero;"/>
        </g>
    </g>
    <defs>
        <linearGradient id="_Linear1" x1="0" y1="0" x2="1" y2="0" gradientUnits="userSpaceOnUse" gradientTransform="matrix(1,0,0,-1,0,0.0474966)"><stop offset="0" style="stop-color:rgb(34,74,154);stop-opacity:1"/><stop offset="0.06" style="stop-color:rgb(34,74,154);stop-opacity:1"/><stop offset="0.52" style="stop-color:rgb(0,161,159);stop-opacity:1"/><stop offset="0.95" style="stop-color:rgb(180,204,3);stop-opacity:1"/><stop offset="1" style="stop-color:rgb(180,204,3);stop-opacity:1"/></linearGradient>
    </defs>
</svg>
