<!DOCTYPE svg PUBLIC "-//W3C//DTD SVG 1.1//EN" "http://www.w3.org/Graphics/SVG/1.1/DTD/svg11.dtd">
<svg viewBox="0 0 22222 16051" xmlns="http://www.w3.org/2000/svg" xml:space="preserve" class="z-0" style="fill-rule:evenodd;clip-rule:evenodd;stroke-linejoin:round;stroke-miterlimit:2">
  <path d="M6173.25 15433.1c0 340.18-275.14 617.83-617.83 617.83l617.83-617.83c-340.18 0-617.83 277.65-617.83 617.83" style="fill:#8c91a4;fill-rule:nonzero"/>
    <path d="M17284.1 14815.3c-340.18 0-617.83-275.15-617.83-617.83l617.83 617.83c0-340.18-277.64-617.83-617.83-617.83" style="fill:#fcfcfc;fill-rule:nonzero"/>
    <path d="M16666.2 14197.5c-340.18 0-617.83-275.14-617.83-617.83l617.83 617.83c0-340.18-277.65-617.83-617.83-617.83" style="fill:#e9e6e6;fill-rule:nonzero"/>
    <path d="M19752.9 12346.5c0 682.86-552.8 1235.65-1235.65 1235.65l1235.65-1235.65c-682.86 0-1235.65 552.8-1235.65 1235.65" style="fill:#9095a7;fill-rule:nonzero"/>
    <path d="M6173.25 13579.6c-682.86 0-1235.65-552.8-1235.65-1235.65l1235.65 1235.65c0-682.86-552.79-1235.65-1235.65-1235.65" style="fill:#fdfdfd;fill-rule:nonzero"/>
    <path d="M22221.7 12346.5c-682.86 0-1235.65-552.79-1235.65-1235.65l1235.65 1235.65c0-682.86-552.79-1235.65-1235.65-1235.65" style="fill:#eeecec;fill-rule:nonzero"/>
    <path d="M6173.25 11110.8c0 682.86-552.79 1235.65-1235.65 1235.65l1235.65-1235.65c-682.86 0-1235.65 552.79-1235.65 1235.65" style="fill:#797e94;fill-rule:nonzero"/>
    <path d="M4322.29 12346.5c-340.18 0-617.83-275.14-617.83-617.82l617.83 617.82c0-340.18-277.65-617.82-617.83-617.82" style="fill:#ebe8e8;fill-rule:nonzero"/>
    <path d="M18519.7 9875.21c0 682.86-552.8 1235.65-1235.65 1235.65l1235.65-1235.65c-682.86 0-1235.65 552.8-1235.65 1235.65" style="fill:#737990;fill-rule:nonzero"/>
    <path d="M14197.5 10493c-340.18 0-617.83-275.15-617.83-617.83l617.83 617.83c0-340.18-277.65-617.83-617.83-617.83" style="fill:#fbfafa;fill-rule:nonzero"/>
    <path d="M12964.3 10493c0 340.18-275.14 617.83-617.83 617.83l617.83-617.83c-340.18 0-617.83 277.65-617.83 617.83" style="fill:#ece9e9;fill-rule:nonzero"/>
    <path d="M7406.38 9877.67c0 682.86-552.8 1235.65-1235.65 1235.65l1235.65-1235.65c-682.86 0-1235.65 552.8-1235.65 1235.65" style="fill:#fcfcfc;fill-rule:nonzero"/>
    <path d="M1235.65 11110.8C552.79 11110.8 0 10558 0 9877.65l1235.65 1233.15c0-682.86-552.8-1235.65-1235.65-1235.65" style="fill:#b3b6c3;fill-rule:nonzero"/>
    <path d="M22221.7 8642.04c0 682.86-552.79 1235.65-1235.65 1235.65l1235.65-1235.65c-682.86 0-1235.65 552.8-1235.65 1235.65" style="fill:#edeaea;fill-rule:nonzero"/>
    <path d="M20988.5 8642.04c0 682.86-552.8 1235.65-1235.65 1235.65l1235.65-1235.65c-682.86 0-1235.65 552.8-1235.65 1235.65" style="fill:#b5b8c4;fill-rule:nonzero"/>
    <path d="M12346.5 9877.67c-340.18 0-617.82-275.15-617.82-617.83l617.82 617.83c0-340.18-277.65-617.83-617.82-617.83" style="fill:#e9e6e6;fill-rule:nonzero"/>
    <path d="M11728.7 9877.67c-340.18 0-617.83-275.15-617.83-617.83l617.83 617.83c0-340.18-277.65-617.83-617.83-617.83" style="fill:#fcfcfc;fill-rule:nonzero"/>
    <path d="M9877.67 9259.88c0 340.18-275.15 617.83-617.83 617.83l617.83-617.83c-340.18 0-617.83 277.65-617.83 617.83" style="fill:#f3f1f1;fill-rule:nonzero"/>
    <path d="M8642.04 9877.67c-682.86 0-1235.65-552.8-1235.65-1235.65l1235.65 1235.65c0-682.86-552.79-1235.65-1235.65-1235.65" style="fill:#f7f5f5;fill-rule:nonzero"/>
    <path d="M7406.38 9877.67c-682.86 0-1235.65-552.8-1235.65-1235.65l1235.65 1235.65c0-682.86-552.8-1235.65-1235.65-1235.65" style="fill:#d1d3db;fill-rule:nonzero"/>
    <path d="M6173.25 8642.04c0 682.86-552.79 1235.65-1235.65 1235.65l1235.65-1235.65c-682.86 0-1235.65 552.8-1235.65 1235.65" style="fill:#e6e2e2;fill-rule:nonzero"/>
    <path d="M3704.45 9877.67c-340.18 0-617.83-275.15-617.83-617.83l617.83 617.83c0-340.18-277.65-617.83-617.83-617.83" style="fill:#e6e3e3;fill-rule:nonzero"/>
    <path d="M3086.62 9877.67c-340.18 0-617.83-275.15-617.83-617.83l617.83 617.83c0-340.18-277.65-617.83-617.83-617.83" style="fill:#f4f4f6;fill-rule:nonzero"/>
    <path d="M3086.62 8642.04c0 340.18-275.15 617.83-617.83 617.83l617.83-617.83c-340.18 0-617.83 277.65-617.83 617.83" style="fill:#f3f1f1;fill-rule:nonzero"/>
    <path d="M2468.8 9877.67c-340.18 0-617.83-275.15-617.83-617.83l617.83 617.83c0-340.18-277.65-617.83-617.83-617.83" style="fill:#ced0d8;fill-rule:nonzero"/>
    <path d="M1850.97 9259.88c-340.18 0-617.83-275.14-617.83-617.83l617.83 617.83c0-340.18-277.65-617.83-617.83-617.83" style="fill:#f4f5f6;fill-rule:nonzero"/>
    <path d="M1235.65 9877.67C552.79 9877.67 0 9324.87 0 8642.02l1235.65 1235.65c0-682.86-552.8-1235.65-1235.65-1235.65" style="fill:#f5f4f4;fill-rule:nonzero"/>
    <path d="M22221.7 7406.38c0 682.86-552.79 1235.65-1235.65 1235.65l1235.65-1235.65c-682.86 0-1235.65 552.79-1235.65 1235.65" style="fill:#9ea2b2;fill-rule:nonzero"/>
    <path d="M20988.5 8024.21c0 340.18-275.15 617.82-617.83 617.82l617.83-617.82c-340.18 0-617.83 277.65-617.83 617.82" style="fill:#e4e5e9;fill-rule:nonzero"/>
    <path d="M20988.5 7406.38c0 340.18-275.15 617.83-617.83 617.83l617.83-617.83c-340.18 0-617.83 277.65-617.83 617.83" style="fill:#fbfbfb;fill-rule:nonzero"/>
    <path d="M19752.9 8642.04c-340.18 0-617.83-275.14-617.83-617.82l617.83 617.82c0-340.18-277.65-617.82-617.83-617.82" style="fill:#e1e3e8;fill-rule:nonzero"/>
    <path d="M17284.1 8024.21c0 340.18-275.14 617.82-617.83 617.82l617.83-617.82c-340.18 0-617.83 277.65-617.83 617.82" style="fill:#ccced7;fill-rule:nonzero"/>
    <path d="M16666.2 8024.21c0 340.18-275.15 617.82-617.83 617.82l617.83-617.82c-340.18 0-617.83 277.65-617.83 617.82" style="fill:#d8dae0;fill-rule:nonzero"/>
    <path d="M17284.1 7406.38c0 340.18-275.14 617.83-617.83 617.83l617.83-617.83c-340.18 0-617.83 277.65-617.83 617.83" style="fill:#fdfdfe;fill-rule:nonzero"/>
    <path d="M14815.3 7406.38c0 682.86-552.8 1235.65-1235.65 1235.65l1235.65-1235.65c-682.86 0-1235.65 552.79-1235.65 1235.65" style="fill:#fcfcfc;fill-rule:nonzero"/>
    <path d="M13579.6 8642.04c-682.86 0-1235.65-552.79-1235.65-1235.65l1235.65 1235.65c0-682.86-552.8-1235.65-1235.65-1235.65" style="fill:#c2c5cf;fill-rule:nonzero"/>
    <path d="M12346.5 7406.38c0 682.86-552.79 1235.65-1235.65 1235.65l1235.65-1235.65c-682.86 0-1235.65 552.79-1235.65 1235.65" style="fill:#cbcdd6;fill-rule:nonzero"/>
    <path d="M9877.67 8024.21c0 340.18-275.15 617.82-617.83 617.82l617.83-617.82c-340.18 0-617.83 277.65-617.83 617.82" style="fill:#ece9e9;fill-rule:nonzero"/>
    <path d="M9259.88 8024.21c0 340.18-275.14 617.82-617.83 617.82l617.83-617.82c-340.18 0-617.83 277.65-617.83 617.82" style="fill:#f7f6f6;fill-rule:nonzero"/>
    <path d="M8642.04 8024.21c0 340.18-275.14 617.82-617.82 617.82l617.82-617.82c-340.18 0-617.82 277.65-617.82 617.82" style="fill:#e9e5e5;fill-rule:nonzero"/>
    <path d="M8024.21 8642.04c-340.18 0-617.83-275.14-617.83-617.82l617.83 617.82c0-340.18-277.65-617.82-617.83-617.82" style="fill:#878ca0;fill-rule:nonzero"/>
    <path d="M8642.04 7406.38c0 340.18-275.14 617.83-617.82 617.83l617.82-617.83c-340.18 0-617.82 277.65-617.82 617.83" style="fill:#edebeb;fill-rule:nonzero"/>
    <path d="M4937.58 8642.04c-340.18 0-617.82-275.14-617.82-617.82l617.82 617.82c0-340.18-277.65-617.82-617.82-617.82" style="fill:#dbdce2;fill-rule:nonzero"/>
    <path d="M4937.58 7406.38c0 340.18-275.14 617.83-617.82 617.83l617.82-617.83c-340.18 0-617.82 277.65-617.82 617.83" style="fill:#9ea2b2;fill-rule:nonzero"/>
    <path d="M1235.65 8642.04c-340.18 0-617.83-275.14-617.83-617.82l617.83 617.82c0-340.18-277.65-617.82-617.83-617.82" style="fill:#fcfcfc;fill-rule:nonzero"/>
    <path d="M19752.9 7406.38c-340.18 0-617.83-275.15-617.83-617.83l617.83 617.83c0-340.18-277.65-617.83-617.83-617.83" style="fill:#dddee4;fill-rule:nonzero"/>
    <path d="M19752.9 6788.58c-340.18 0-617.83-275.15-617.83-617.83l617.83 617.83c0-340.18-277.65-617.83-617.83-617.83" style="fill:#b8bbc7;fill-rule:nonzero"/>
    <path d="M18519.7 6173.25c0 682.86-552.8 1235.65-1235.65 1235.65l1235.65-1235.65c-682.86 0-1235.65 552.8-1235.65 1235.65" style="fill:#e8e4e4;fill-rule:nonzero"/>
    <path d="M17284.1 6173.25c0 682.86-552.8 1235.65-1235.65 1235.65l1235.65-1235.65c-682.86 0-1235.65 552.8-1235.65 1235.65" style="fill:#a8acba;fill-rule:nonzero"/>
    <path d="M16048.4 7406.38c-340.18 0-617.83-275.15-617.83-617.83l617.83 617.83c0-340.18-277.65-617.83-617.83-617.83" style="fill:#7e8399;fill-rule:nonzero"/>
    <path d="M15433.1 7406.38c-340.18 0-617.82-275.15-617.82-617.83l617.82 617.83c0-340.18-277.65-617.83-617.82-617.83" style="fill:#a9adbb;fill-rule:nonzero"/>
    <path d="M16048.4 6173.25c0 340.18-275.15 617.83-617.83 617.83l617.83-617.83c-340.18 0-617.83 277.65-617.83 617.83" style="fill:#faf9f9;fill-rule:nonzero"/>
    <path d="M15433.1 6173.25c0 340.18-275.14 617.83-617.82 617.83l617.82-617.83c-340.18 0-617.82 277.65-617.82 617.83" style="fill:#acb0be;fill-rule:nonzero"/>
    <path d="M14815.3 7406.38c-340.18 0-617.83-275.15-617.83-617.83l617.83 617.83c0-340.18-277.65-617.83-617.83-617.83" style="fill:#edebeb;fill-rule:nonzero"/>
    <path d="M14197.5 7406.38c-340.18 0-617.83-275.15-617.83-617.83l617.83 617.83c0-340.18-277.65-617.83-617.83-617.83" style="fill:#e4e5ea;fill-rule:nonzero"/>
    <path d="M14815.3 6791.08c-340.18 0-617.83-275.15-617.83-617.83l617.83 617.83c0-340.18-277.65-617.83-617.83-617.83" style="fill:#e6e3e3;fill-rule:nonzero"/>
    <path d="M12961.8 7406.38c-340.18 0-617.83-275.15-617.83-617.83l617.83 617.83c0-340.18-277.65-617.83-617.83-617.83" style="fill:#6e748c;fill-rule:nonzero"/>
    <path d="M13579.6 6791.08c-340.18 0-617.83-275.15-617.83-617.83l617.83 617.83c0-340.18-277.65-617.83-617.83-617.83" style="fill:#f1efef;fill-rule:nonzero"/>
    <path d="M12961.8 6791.08c-340.18 0-617.83-275.15-617.83-617.83l617.83 617.83c0-340.18-277.65-617.83-617.83-617.83" style="fill:#8b90a3;fill-rule:nonzero"/>
    <path d="M12346.5 6791.08c0 340.18-275.14 617.83-617.82 617.83l617.82-617.83c-340.18 0-617.82 277.65-617.82 617.83" style="fill:#d4d6dd;fill-rule:nonzero"/>
    <path d="M11728.7 7406.38c-340.18 0-617.83-275.15-617.83-617.83l617.83 617.83c0-340.18-277.65-617.83-617.83-617.83" style="fill:#b9bcc7;fill-rule:nonzero"/>
    <path d="M12346.5 6173.25c0 340.18-275.14 617.83-617.82 617.83l617.82-617.83c-340.18 0-617.82 277.65-617.82 617.83" style="fill:#a9adbb;fill-rule:nonzero"/>
    <path d="M11728.7 6791.08c-340.18 0-617.83-275.15-617.83-617.83l617.83 617.83c0-340.18-277.65-617.83-617.83-617.83" style="fill:#fbfbfb;fill-rule:nonzero"/>
    <path d="M8642.04 7406.38c-682.86 0-1235.65-552.8-1235.65-1235.65l1235.65 1235.65c0-682.86-552.79-1235.65-1235.65-1235.65" style="fill:#faf9f9;fill-rule:nonzero"/>
    <path d="M6173.25 6173.25c0 682.86-552.79 1235.65-1235.65 1235.65l1235.65-1235.65c-682.86 0-1235.65 552.8-1235.65 1235.65" style="fill:#7e8399;fill-rule:nonzero"/>
    <path d="M4937.58 7406.38c-682.86 0-1235.65-552.8-1235.65-1235.65l1235.65 1235.65c0-682.86-552.79-1235.65-1235.65-1235.65" style="fill:#a8abba;fill-rule:nonzero"/>
    <path d="M2468.8 6791.08c0 340.18-275.14 617.83-617.83 617.83l617.83-617.83c-340.18 0-617.83 277.65-617.83 617.83" style="fill:#8b90a3;fill-rule:nonzero"/>
    <path d="M1850.97 6791.08c0 340.18-275.14 617.83-617.83 617.83l617.83-617.83c-340.18 0-617.83 277.65-617.83 617.83" style="fill:#fafafb;fill-rule:nonzero"/>
    <path d="M2468.8 6791.08c-340.18 0-617.83-275.15-617.83-617.83l617.83 617.83c0-340.18-277.65-617.83-617.83-617.83" style="fill:#7d8398;fill-rule:nonzero"/>
    <path d="M1850.97 6173.25c0 340.18-275.14 617.83-617.83 617.83l617.83-617.83c-340.18 0-617.83 277.65-617.83 617.83" style="fill:#ebe8e8;fill-rule:nonzero"/>
    <path d="M1235.65 7408.88C552.79 7408.88 0 6856.08 0 6173.23l1235.65 1235.65c0-682.86-552.8-1235.65-1235.65-1235.65" style="fill:#9fa3b3;fill-rule:nonzero"/>
    <path d="M20988.5 6173.25c-682.86 0-1235.65-552.79-1235.65-1235.65l1235.65 1235.65c0-682.86-552.8-1235.65-1235.65-1235.65" style="fill:#999dae;fill-rule:nonzero"/>
    <path d="M19135 6173.25c-340.18 0-617.83-275.14-617.83-617.83l617.83 617.83c0-340.18-277.65-617.83-617.83-617.83" style="fill:#efecec;fill-rule:nonzero"/>
    <path d="M19135 4937.58c0 340.18-275.15 617.83-617.83 617.83l617.83-617.83c-340.18 0-617.83 277.65-617.83 617.83" style="fill:#f4f2f2;fill-rule:nonzero"/>
    <path d="M17284.1 6173.25c-682.86 0-1235.65-552.79-1235.65-1235.65l1235.65 1235.65c0-682.86-552.8-1235.65-1235.65-1235.65" style="fill:#f7f5f5;fill-rule:nonzero"/>
    <path d="M14815.3 6173.25c-340.18 0-617.83-275.14-617.83-617.83l617.83 617.83c0-340.18-277.65-617.83-617.83-617.83" style="fill:#f5f4f4;fill-rule:nonzero"/>
    <path d="M14197.5 5555.42c0 340.18-275.14 617.83-617.83 617.83l617.83-617.83c-340.18 0-617.83 277.64-617.83 617.83" style="fill:#d4d6dd;fill-rule:nonzero"/>
    <path d="M14815.3 4937.58c0 340.18-275.15 617.83-617.83 617.83l617.83-617.83c-340.18 0-617.83 277.65-617.83 617.83" style="fill:#71778e;fill-rule:nonzero"/>
    <path d="M14197.5 4937.58c0 340.18-275.14 617.83-617.83 617.83l617.83-617.83c-340.18 0-617.83 277.65-617.83 617.83" style="fill:#f5f5f7;fill-rule:nonzero"/>
    <path d="M13579.6 6173.25c-340.18 0-617.83-275.14-617.83-617.83l617.83 617.83c0-340.18-277.65-617.83-617.83-617.83" style="fill:#f6f4f4;fill-rule:nonzero"/>
    <path d="M12961.8 6173.25c-340.18 0-617.83-275.14-617.83-617.83l617.83 617.83c0-340.18-277.65-617.83-617.83-617.83" style="fill:#f8f7f7;fill-rule:nonzero"/>
    <path d="M13579.6 4937.58c0 340.18-275.15 617.83-617.83 617.83l617.83-617.83c-340.18 0-617.83 277.65-617.83 617.83" style="fill:#71778f;fill-rule:nonzero"/>
    <path d="M12346.5 6173.25c-682.86 0-1235.65-552.79-1235.65-1235.65l1235.65 1235.65c0-682.86-552.79-1235.65-1235.65-1235.65" style="fill:#efeded;fill-rule:nonzero"/>
    <path d="M9877.67 4937.58c0 682.86-552.8 1235.65-1235.65 1235.65l1235.65-1235.65c-682.86 0-1235.65 552.8-1235.65 1235.65" style="fill:#f4f5f6;fill-rule:nonzero"/>
    <path d="M8642.04 4937.58c0 682.86-552.79 1235.65-1235.65 1235.65l1235.65-1235.65c-682.86 0-1235.65 552.8-1235.65 1235.65" style="fill:#e5e6ea;fill-rule:nonzero"/>
    <path d="M7406.38 6173.25c-340.18 0-617.83-275.14-617.83-617.83l617.83 617.83c0-340.18-277.65-617.83-617.83-617.83" style="fill:#f7f6f6;fill-rule:nonzero"/>
    <path d="M6791.08 6173.25c-340.18 0-617.83-275.14-617.83-617.83l617.83 617.83c0-340.18-277.65-617.83-617.83-617.83" style="fill:#fbfbfb;fill-rule:nonzero"/>
    <path d="M7406.38 5555.42c-340.18 0-617.83-275.14-617.83-617.83l617.83 617.83c0-340.18-277.65-617.83-617.83-617.83" style="fill:#e5e2e2;fill-rule:nonzero"/>
    <path d="M6173.25 5555.42c-340.18 0-617.83-275.14-617.83-617.83l617.83 617.83c0-340.18-277.65-617.83-617.83-617.83" style="fill:#a6a9b8;fill-rule:nonzero"/>
    <path d="M5555.42 4937.58c0 340.18-275.14 617.83-617.83 617.83l617.83-617.83c-340.18 0-617.83 277.65-617.83 617.83" style="fill:#fff;fill-rule:nonzero"/>
    <path d="M4319.79 6173.25c-340.18 0-617.83-275.14-617.83-617.83l617.83 617.83c0-340.18-277.65-617.83-617.83-617.83" style="fill:#a4a7b6;fill-rule:nonzero"/>
    <path d="M4937.58 4937.58c0 340.18-275.14 617.83-617.82 617.83l617.82-617.83c-340.18 0-617.82 277.65-617.82 617.83" style="fill:#a6aab8;fill-rule:nonzero"/>
    <path d="M4319.79 4937.58c0 340.18-275.15 617.83-617.83 617.83l617.83-617.83c-340.18 0-617.83 277.65-617.83 617.83" style="fill:#c6c9d2;fill-rule:nonzero"/>
    <path d="M3704.45 6173.25c-340.18 0-617.83-275.14-617.83-617.83l617.83 617.83c0-340.18-277.65-617.83-617.83-617.83" style="fill:#84899d;fill-rule:nonzero"/>
    <path d="M3704.45 4937.58c0 340.18-275.15 617.83-617.83 617.83l617.83-617.83c-340.18 0-617.83 277.65-617.83 617.83" style="fill:#efeff2;fill-rule:nonzero"/>
    <path d="M3086.62 4937.58c0 340.18-275.15 617.83-617.83 617.83l617.83-617.83c-340.18 0-617.83 277.65-617.83 617.83" style="fill:#dadbe1;fill-rule:nonzero"/>
    <path d="M2468.8 5555.42c0 340.18-275.14 617.83-617.83 617.83l617.83-617.83c-340.18 0-617.83 277.64-617.83 617.83" style="fill:#969aac;fill-rule:nonzero"/>
    <path d="M1850.97 5555.42c0 340.18-275.14 617.83-617.83 617.83l617.83-617.83c-340.18 0-617.83 277.64-617.83 617.83" style="fill:#e6e3e3;fill-rule:nonzero"/>
    <path d="M2468.8 5555.42c-340.18 0-617.83-275.14-617.83-617.83l617.83 617.83c0-340.18-277.65-617.83-617.83-617.83" style="fill:#e8e4e4;fill-rule:nonzero"/>
    <path d="M1850.97 4937.58c0 340.18-275.14 617.83-617.83 617.83l617.83-617.83c-340.18 0-617.83 277.65-617.83 617.83" style="fill:#ced0d8;fill-rule:nonzero"/>
    <path d="M1235.65 5555.42c0 340.18-275.15 617.83-617.83 617.83l617.83-617.83c-340.18 0-617.83 277.64-617.83 617.83" style="fill:#b5b8c4;fill-rule:nonzero"/>
    <path d="M617.83 6173.25A615.96 615.96 0 0 1 0 5555.42l617.83 617.83c0-340.18-277.65-617.83-617.83-617.83" style="fill:#f4f2f2;fill-rule:nonzero"/>
    <path d="M617.83 5555.42A615.96 615.96 0 0 1 0 4937.59l617.83 617.83c0-340.18-277.65-617.83-617.83-617.83" style="fill:#d2d4db;fill-rule:nonzero"/>
    <path d="M22221.7 3704.45c0 682.86-552.79 1235.65-1235.65 1235.65l1235.65-1235.65c-682.86 0-1235.65 552.8-1235.65 1235.65" style="fill:#fdfdfe;fill-rule:nonzero"/>
    <path d="M20988.5 4319.79c0 340.18-275.15 617.82-617.83 617.82l617.83-617.82c-340.18 0-617.83 277.64-617.83 617.82" style="fill:#c8cbd4;fill-rule:nonzero"/>
    <path d="M20370.7 4937.58c-340.18 0-617.83-275.14-617.83-617.82l617.83 617.82c0-340.18-277.64-617.82-617.83-617.82" style="fill:#797e94;fill-rule:nonzero"/>
    <path d="M20988.5 4319.79c-340.18 0-617.83-275.15-617.83-617.83l617.83 617.83c0-340.18-277.65-617.83-617.83-617.83" style="fill:#f7f6f6;fill-rule:nonzero"/>
    <path d="M20370.7 4319.79c-340.18 0-617.83-275.15-617.83-617.83l617.83 617.83c0-340.18-277.64-617.83-617.83-617.83" style="fill:#eae7e7;fill-rule:nonzero"/>
    <path d="M19752.9 4937.58c-682.86 0-1235.65-552.79-1235.65-1235.65l1235.65 1235.65c0-682.86-552.8-1235.65-1235.65-1235.65" style="fill:#71778f;fill-rule:nonzero"/>
    <path d="M18519.7 4937.58c-340.18 0-617.83-275.14-617.83-617.82l617.83 617.82c0-340.18-277.64-617.82-617.83-617.82" style="fill:#b6b9c5;fill-rule:nonzero"/>
    <path d="M17901.9 4319.79c0 340.18-275.15 617.82-617.83 617.82l617.83-617.82c-340.18 0-617.83 277.64-617.83 617.82" style="fill:#faf9f9;fill-rule:nonzero"/>
    <path d="M18519.7 4319.79c-340.18 0-617.83-275.15-617.83-617.83l617.83 617.83c0-340.18-277.64-617.83-617.83-617.83" style="fill:#8a8fa2;fill-rule:nonzero"/>
    <path d="M16666.2 4937.58c-340.18 0-617.83-275.14-617.83-617.82l617.83 617.82c0-340.18-277.65-617.82-617.83-617.82" style="fill:#adb0be;fill-rule:nonzero"/>
    <path d="M16666.2 4319.79c-340.18 0-617.83-275.15-617.83-617.83l617.83 617.83c0-340.18-277.65-617.83-617.83-617.83" style="fill:#b5b8c4;fill-rule:nonzero"/>
    <path d="M16048.4 3704.45c0 682.86-552.8 1235.65-1235.65 1235.65l1235.65-1235.65c-682.86 0-1235.65 552.8-1235.65 1235.65" style="fill:#aaaebc;fill-rule:nonzero"/>
    <path d="M14815.3 4937.58c-682.86 0-1235.65-552.79-1235.65-1235.65l1235.65 1235.65c0-682.86-552.8-1235.65-1235.65-1235.65" style="fill:#fbfafa;fill-rule:nonzero"/>
    <path d="M13579.6 3704.45c0 682.86-552.8 1235.65-1235.65 1235.65l1235.65-1235.65c-682.86 0-1235.65 552.8-1235.65 1235.65" style="fill:#8c91a4;fill-rule:nonzero"/>
    <path d="M11110.8 3704.45c0 682.86-552.8 1235.65-1235.65 1235.65l1235.65-1235.65c-682.86 0-1235.65 552.8-1235.65 1235.65" style="fill:#ece9e9;fill-rule:nonzero"/>
    <path d="M9877.67 4937.58c-340.18 0-617.83-275.14-617.83-617.82l617.83 617.82c0-340.18-277.65-617.82-617.83-617.82" style="fill:#b6b9c5;fill-rule:nonzero"/>
    <path d="M9259.88 4322.29c0 340.18-275.14 617.83-617.83 617.83l617.83-617.83c-340.18 0-617.83 277.64-617.83 617.83" style="fill:#c6c9d2;fill-rule:nonzero"/>
    <path d="M9877.67 4322.29c-340.18 0-617.83-275.15-617.83-617.83l617.83 617.83c0-340.18-277.65-617.83-617.83-617.83" style="fill:#b7bac6;fill-rule:nonzero"/>
    <path d="M9259.88 3704.45c0 340.18-275.14 617.83-617.83 617.83l617.83-617.83c-340.18 0-617.83 277.65-617.83 617.83" style="fill:#caccd5;fill-rule:nonzero"/>
    <path d="M8642.04 4937.58c-682.86 0-1235.65-552.79-1235.65-1235.65l1235.65 1235.65c0-682.86-552.79-1235.65-1235.65-1235.65" style="fill:#b1b4c1;fill-rule:nonzero"/>
    <path d="M6173.25 3704.45c0 682.86-552.79 1235.65-1235.65 1235.65l1235.65-1235.65c-682.86 0-1235.65 552.8-1235.65 1235.65" style="fill:#e2e3e8;fill-rule:nonzero"/>
    <path d="M4937.58 4937.58c-340.18 0-617.82-275.14-617.82-617.82l617.82 617.82c0-340.18-277.65-617.82-617.82-617.82" style="fill:#9599ab;fill-rule:nonzero"/>
    <path d="M4937.58 4322.29c-340.18 0-617.82-275.15-617.82-617.83l617.82 617.83c0-340.18-277.65-617.83-617.82-617.83" style="fill:#f7f6f6;fill-rule:nonzero"/>
    <path d="M4319.79 4322.29c-340.18 0-617.83-275.15-617.83-617.83l617.83 617.83c0-340.18-277.65-617.83-617.83-617.83" style="fill:#fefefe;fill-rule:nonzero"/>
    <path d="M3704.45 3704.45c0 682.86-552.8 1235.65-1235.65 1235.65l1235.65-1235.65c-682.86 0-1235.65 552.8-1235.65 1235.65" style="fill:#f7f6f6;fill-rule:nonzero"/>
    <path d="M2468.8 3704.45c0 682.86-552.79 1235.65-1235.65 1235.65L2468.8 3704.45c-682.86 0-1235.65 552.8-1235.65 1235.65" style="fill:#eeebeb;fill-rule:nonzero"/>
    <path d="M1235.65 4322.29c0 340.18-275.15 617.83-617.83 617.83l617.83-617.83c-340.18 0-617.83 277.64-617.83 617.83" style="fill:#b7bac6;fill-rule:nonzero"/>
    <path d="M617.83 4322.29c0 340.18-275.15 617.83-617.83 617.83l617.83-617.83C275.15 4322.29 0 4597.43 0 4937.61" style="fill:#efecec;fill-rule:nonzero"/>
    <path d="M1235.65 4322.29c-340.18 0-617.83-275.15-617.83-617.83l617.83 617.83c0-340.18-277.65-617.83-617.83-617.83" style="fill:#9a9eaf;fill-rule:nonzero"/>
    <path d="M22221.7 3704.45c-682.86 0-1235.65-552.8-1235.65-1235.65l1235.65 1235.65c0-682.86-552.79-1235.65-1235.65-1235.65" style="fill:#7c8197;fill-rule:nonzero"/>
    <path d="M19752.9 3086.62c0 340.18-275.15 617.83-617.83 617.83l617.83-617.83c-340.18 0-617.83 277.65-617.83 617.83" style="fill:#abafbd;fill-rule:nonzero"/>
    <path d="M19135 3086.62c0 340.18-275.15 617.83-617.83 617.83l617.83-617.83c-340.18 0-617.83 277.65-617.83 617.83" style="fill:#e7e3e3;fill-rule:nonzero"/>
    <path d="M19752.9 3086.62c-340.18 0-617.83-275.15-617.83-617.83l617.83 617.83c0-340.18-277.65-617.83-617.83-617.83" style="fill:#cbcdd6;fill-rule:nonzero"/>
    <path d="M19135 2468.8c0 340.18-275.15 617.83-617.83 617.83L19135 2468.8c-340.18 0-617.83 277.65-617.83 617.83" style="fill:#858a9e;fill-rule:nonzero"/>
    <path d="M18519.7 3704.45c-340.18 0-617.83-275.15-617.83-617.83l617.83 617.83c0-340.18-277.64-617.83-617.83-617.83" style="fill:#757b92;fill-rule:nonzero"/>
    <path d="M17901.9 3704.45c-340.18 0-617.83-275.15-617.83-617.83l617.83 617.83c0-340.18-277.65-617.83-617.83-617.83" style="fill:#e9e6e6;fill-rule:nonzero"/>
    <path d="M18519.7 3086.62c-340.18 0-617.83-275.15-617.83-617.83l617.83 617.83c0-340.18-277.64-617.83-617.83-617.83" style="fill:#fbfbfb;fill-rule:nonzero"/>
    <path d="M17901.9 3086.62c-340.18 0-617.83-275.15-617.83-617.83l617.83 617.83c0-340.18-277.65-617.83-617.83-617.83" style="fill:#f3f2f2;fill-rule:nonzero"/>
    <path d="M17284.1 3704.45c-340.18 0-617.83-275.15-617.83-617.83l617.83 617.83c0-340.18-277.64-617.83-617.83-617.83" style="fill:#e7e3e3;fill-rule:nonzero"/>
    <path d="M16666.2 3086.62c0 340.18-275.15 617.83-617.83 617.83l617.83-617.83c-340.18 0-617.83 277.65-617.83 617.83" style="fill:#e5e6eb;fill-rule:nonzero"/>
    <path d="M17284.1 2468.8c0 340.18-275.14 617.83-617.83 617.83l617.83-617.83c-340.18 0-617.83 277.65-617.83 617.83" style="fill:#f7f6f6;fill-rule:nonzero"/>
    <path d="M16666.2 3086.62c-340.18 0-617.83-275.15-617.83-617.83l617.83 617.83c0-340.18-277.65-617.83-617.83-617.83" style="fill:#fdfdfd;fill-rule:nonzero"/>
    <path d="M16048.4 3704.45c-340.18 0-617.83-275.15-617.83-617.83l617.83 617.83c0-340.18-277.65-617.83-617.83-617.83" style="fill:#f7f7f9;fill-rule:nonzero"/>
    <path d="M15433.1 3704.45c-340.18 0-617.82-275.15-617.82-617.83l617.82 617.83c0-340.18-277.65-617.83-617.82-617.83" style="fill:#efeded;fill-rule:nonzero"/>
    <path d="M16048.4 3086.62c-340.18 0-617.83-275.15-617.83-617.83l617.83 617.83c0-340.18-277.65-617.83-617.83-617.83" style="fill:#9296a8;fill-rule:nonzero"/>
    <path d="M15433.1 2468.8c0 340.18-275.14 617.83-617.82 617.83l617.82-617.83c-340.18 0-617.82 277.65-617.82 617.83" style="fill:#e5e1e1;fill-rule:nonzero"/>
    <path d="M14815.3 3086.62c0 340.18-275.15 617.83-617.83 617.83l617.83-617.83c-340.18 0-617.83 277.65-617.83 617.83" style="fill:#f0eded;fill-rule:nonzero"/>
    <path d="M14197.5 3704.45c-340.18 0-617.83-275.15-617.83-617.83l617.83 617.83c0-340.18-277.65-617.83-617.83-617.83" style="fill:#f4f3f3;fill-rule:nonzero"/>
    <path d="M14815.3 2468.8c0 340.18-275.15 617.83-617.83 617.83l617.83-617.83c-340.18 0-617.83 277.65-617.83 617.83" style="fill:#f3f1f1;fill-rule:nonzero"/>
    <path d="M14197.5 2468.8c0 340.18-275.14 617.83-617.83 617.83l617.83-617.83c-340.18 0-617.83 277.65-617.83 617.83" style="fill:#c6c9d2;fill-rule:nonzero"/>
    <path d="M13579.6 3086.62c0 340.18-275.15 617.83-617.83 617.83l617.83-617.83c-340.18 0-617.83 277.65-617.83 617.83" style="fill:#e9e5e5;fill-rule:nonzero"/>
    <path d="M12961.8 3086.62c0 340.18-275.15 617.83-617.83 617.83l617.83-617.83c-340.18 0-617.83 277.65-617.83 617.83" style="fill:#fbfcfc;fill-rule:nonzero"/>
    <path d="M13579.6 3086.62c-340.18 0-617.83-275.15-617.83-617.83l617.83 617.83c0-340.18-277.65-617.83-617.83-617.83" style="fill:#eeecec;fill-rule:nonzero"/>
    <path d="M12961.8 3086.62c-340.18 0-617.83-275.15-617.83-617.83l617.83 617.83c0-340.18-277.65-617.83-617.83-617.83" style="fill:#f8f7f7;fill-rule:nonzero"/>
    <path d="M12346.5 3704.45c-340.18 0-617.82-275.15-617.82-617.83l617.82 617.83c0-340.18-277.65-617.83-617.82-617.83" style="fill:#f4f3f3;fill-rule:nonzero"/>
    <path d="M11728.7 3704.45c-340.18 0-617.83-275.15-617.83-617.83l617.83 617.83c0-340.18-277.65-617.83-617.83-617.83" style="fill:#b3b6c3;fill-rule:nonzero"/>
    <path d="M12346.5 3086.62c-340.18 0-617.82-275.15-617.82-617.83l617.82 617.83c0-340.18-277.65-617.83-617.82-617.83" style="fill:#83889c;fill-rule:nonzero"/>
    <path d="M11728.7 3086.62c-340.18 0-617.83-275.15-617.83-617.83l617.83 617.83c0-340.18-277.65-617.83-617.83-617.83" style="fill:#fefefe;fill-rule:nonzero"/>
    <path d="M11110.8 2468.8c0 682.86-552.8 1235.65-1235.65 1235.65L11110.8 2468.8c-682.86 0-1235.65 552.8-1235.65 1235.65" style="fill:#dedfe5;fill-rule:nonzero"/>
    <path d="M9259.88 3704.45c-340.18 0-617.83-275.15-617.83-617.83l617.83 617.83c0-340.18-277.65-617.83-617.83-617.83" style="fill:#fafafa;fill-rule:nonzero"/>
    <path d="M9877.67 3086.62c-340.18 0-617.83-275.15-617.83-617.83l617.83 617.83c0-340.18-277.65-617.83-617.83-617.83" style="fill:#eaebef;fill-rule:nonzero"/>
    <path d="M9259.88 2468.8c0 340.18-275.14 617.83-617.83 617.83l617.83-617.83c-340.18 0-617.83 277.65-617.83 617.83" style="fill:#f9f9f9;fill-rule:nonzero"/>
    <path d="M8642.04 3086.62c0 340.18-275.14 617.83-617.82 617.83l617.82-617.83c-340.18 0-617.82 277.65-617.82 617.83" style="fill:#ece9e9;fill-rule:nonzero"/>
    <path d="M8024.21 3086.62c0 340.18-275.15 617.83-617.83 617.83l617.83-617.83c-340.18 0-617.83 277.65-617.83 617.83" style="fill:#8b90a3;fill-rule:nonzero"/>
    <path d="M8642.04 3086.62c-340.18 0-617.82-275.15-617.82-617.83l617.82 617.83c0-340.18-277.65-617.83-617.82-617.83" style="fill:#f2f0f0;fill-rule:nonzero"/>
    <path d="M8024.21 2468.8c0 340.18-275.15 617.83-617.83 617.83l617.83-617.83c-340.18 0-617.83 277.65-617.83 617.83" style="fill:#dddee4;fill-rule:nonzero"/>
    <path d="M7406.38 3704.45c-682.86 0-1235.65-552.8-1235.65-1235.65l1235.65 1235.65c0-682.86-552.8-1235.65-1235.65-1235.65" style="fill:#bdc0cb;fill-rule:nonzero"/>
    <path d="M6173.25 3704.45c-682.86 0-1235.65-552.8-1235.65-1235.65l1235.65 1235.65c0-682.86-552.79-1235.65-1235.65-1235.65" style="fill:#e9eaed;fill-rule:nonzero"/>
    <path d="M4937.58 3704.45c-682.86 0-1235.65-552.8-1235.65-1235.65l1235.65 1235.65c0-682.86-552.79-1235.65-1235.65-1235.65" style="fill:#81869b;fill-rule:nonzero"/>
    <path d="M3704.45 3086.62c0 340.18-275.15 617.83-617.83 617.83l617.83-617.83c-340.18 0-617.83 277.65-617.83 617.83" style="fill:#dbdce2;fill-rule:nonzero"/>
    <path d="M3086.62 3086.62c0 340.18-275.15 617.83-617.83 617.83l617.83-617.83c-340.18 0-617.83 277.65-617.83 617.83" style="fill:#fbfbfb;fill-rule:nonzero"/>
    <path d="M3704.45 3086.62c-340.18 0-617.83-275.15-617.83-617.83l617.83 617.83c0-340.18-277.65-617.83-617.83-617.83" style="fill:#bfc1cc;fill-rule:nonzero"/>
    <path d="M2468.8 3704.45c-340.18 0-617.83-275.15-617.83-617.83l617.83 617.83c0-340.18-277.65-617.83-617.83-617.83" style="fill:#e9eaee;fill-rule:nonzero"/>
    <path d="M1850.97 3086.62c0 340.18-275.14 617.83-617.83 617.83l617.83-617.83c-340.18 0-617.83 277.65-617.83 617.83" style="fill:#d0d2da;fill-rule:nonzero"/>
    <path d="M2468.8 2468.8c0 340.18-275.14 617.83-617.83 617.83l617.83-617.83c-340.18 0-617.83 277.65-617.83 617.83" style="fill:#c5c7d1;fill-rule:nonzero"/>
    <path d="M1850.97 2468.8c0 340.18-275.14 617.83-617.83 617.83l617.83-617.83c-340.18 0-617.83 277.65-617.83 617.83" style="fill:#81869b;fill-rule:nonzero"/>
    <path d="M1235.65 3704.45C552.79 3704.45 0 3151.65 0 2468.8l1235.65 1235.65c0-682.86-552.8-1235.65-1235.65-1235.65" style="fill:#fefefe;fill-rule:nonzero"/>
    <path d="M22221.7 2468.8c-682.86 0-1235.65-552.79-1235.65-1235.65L22221.7 2468.8c0-682.86-552.79-1235.65-1235.65-1235.65" style="fill:#fff;fill-rule:nonzero"/>
    <path d="M20988.5 2468.8c-340.18 0-617.83-275.14-617.83-617.83l617.83 617.83c0-340.18-277.65-617.83-617.83-617.83" style="fill:#a2a6b5;fill-rule:nonzero"/>
    <path d="M20370.7 2468.8c-340.18 0-617.83-275.14-617.83-617.83l617.83 617.83c0-340.18-277.64-617.83-617.83-617.83" style="fill:#f3f1f1;fill-rule:nonzero"/>
    <path d="M20988.5 1850.97c-340.18 0-617.83-275.14-617.83-617.83l617.83 617.83c0-340.18-277.65-617.83-617.83-617.83" style="fill:#f3f3f5;fill-rule:nonzero"/>
    <path d="M20370.7 1850.97c-340.18 0-617.83-275.14-617.83-617.83l617.83 617.83c0-340.18-277.64-617.83-617.83-617.83" style="fill:#a8abba;fill-rule:nonzero"/>
    <path d="M19752.9 2468.8c-682.86 0-1235.65-552.79-1235.65-1235.65L19752.9 2468.8c0-682.86-552.8-1235.65-1235.65-1235.65" style="fill:#a2a6b5;fill-rule:nonzero"/>
    <path d="M18519.7 1233.15c0 682.86-552.8 1235.65-1235.65 1235.65l1235.65-1235.65c-682.86 0-1235.65 552.8-1235.65 1235.65" style="fill:#f4f2f2;fill-rule:nonzero"/>
    <path d="M17284.1 1233.15c0 682.86-552.8 1235.65-1235.65 1235.65l1235.65-1235.65c-682.86 0-1235.65 552.8-1235.65 1235.65" style="fill:#fbfafa;fill-rule:nonzero"/>
    <path d="M16048.4 2468.8c-682.86 0-1235.65-552.79-1235.65-1235.65L16048.4 2468.8c0-682.86-552.8-1235.65-1235.65-1235.65" style="fill:#b9bcc7;fill-rule:nonzero"/>
    <path d="M14815.3 2468.8c-340.18 0-617.83-275.14-617.83-617.83l617.83 617.83c0-340.18-277.65-617.83-617.83-617.83" style="fill:#b5b8c4;fill-rule:nonzero"/>
    <path d="M14197.5 2468.8c-340.18 0-617.83-275.14-617.83-617.83l617.83 617.83c0-340.18-277.65-617.83-617.83-617.83" style="fill:#afb2bf;fill-rule:nonzero"/>
    <path d="M14815.3 1850.97c-340.18 0-617.83-275.14-617.83-617.83l617.83 617.83c0-340.18-277.65-617.83-617.83-617.83" style="fill:#f4f2f2;fill-rule:nonzero"/>
    <path d="M14197.5 1235.65c0 340.18-275.14 617.83-617.83 617.83l617.83-617.83c-340.18 0-617.83 277.65-617.83 617.83" style="fill:#e5e1e1;fill-rule:nonzero"/>
    <path d="M13579.6 1233.15c0 682.86-552.8 1235.65-1235.65 1235.65l1235.65-1235.65c-682.86 0-1235.65 552.8-1235.65 1235.65" style="fill:#9196a8;fill-rule:nonzero"/>
    <path d="M12346.5 1850.97c0 340.18-275.14 617.83-617.82 617.83l617.82-617.83c-340.18 0-617.82 277.65-617.82 617.83" style="fill:#7c8197;fill-rule:nonzero"/>
    <path d="M11728.7 1850.97c0 340.18-275.15 617.83-617.83 617.83l617.83-617.83c-340.18 0-617.83 277.65-617.83 617.83" style="fill:#dbdce2;fill-rule:nonzero"/>
    <path d="M12346.5 1850.97c-340.18 0-617.82-275.14-617.82-617.83l617.82 617.83c0-340.18-277.65-617.83-617.82-617.83" style="fill:#d0d2d9;fill-rule:nonzero"/>
    <path d="M11728.7 1235.65c0 340.18-275.15 617.83-617.83 617.83l617.83-617.83c-340.18 0-617.83 277.65-617.83 617.83" style="fill:#f4f2f2;fill-rule:nonzero"/>
    <path d="M11110.8 2468.8c-682.86 0-1235.65-552.79-1235.65-1235.65L11110.8 2468.8c0-682.86-552.8-1235.65-1235.65-1235.65" style="fill:#eeeff2;fill-rule:nonzero"/>
    <path d="M9877.67 2468.8c-682.86 0-1235.65-552.79-1235.65-1235.65L9877.67 2468.8c0-682.86-552.8-1235.65-1235.65-1235.65" style="fill:#bbbec9;fill-rule:nonzero"/>
    <path d="M8642.04 1235.65c0 682.86-552.79 1235.65-1235.65 1235.65l1235.65-1235.65c-682.86 0-1235.65 552.79-1235.65 1235.65" style="fill:#f6f5f5;fill-rule:nonzero"/>
    <path d="M7406.38 2468.8c-340.18 0-617.83-275.14-617.83-617.83l617.83 617.83c0-340.18-277.65-617.83-617.83-617.83" style="fill:#a5a9b8;fill-rule:nonzero"/>
    <path d="M6791.08 1850.97c0 340.18-275.15 617.83-617.83 617.83l617.83-617.83c-340.18 0-617.83 277.65-617.83 617.83" style="fill:#e5e7eb;fill-rule:nonzero"/>
    <path d="M7406.38 1850.97c-340.18 0-617.83-275.14-617.83-617.83l617.83 617.83c0-340.18-277.65-617.83-617.83-617.83" style="fill:#f2f0f0;fill-rule:nonzero"/>
    <path d="M6791.08 1850.97c-340.18 0-617.83-275.14-617.83-617.83l617.83 617.83c0-340.18-277.65-617.83-617.83-617.83" style="fill:#cbced6;fill-rule:nonzero"/>
    <path d="M6173.25 1235.65c0 682.86-552.79 1235.65-1235.65 1235.65l1235.65-1235.65c-682.86 0-1235.65 552.79-1235.65 1235.65" style="fill:#f3f1f1;fill-rule:nonzero"/>
    <path d="M4937.58 1235.65c0 682.86-552.79 1235.65-1235.65 1235.65l1235.65-1235.65c-682.86 0-1235.65 552.79-1235.65 1235.65" style="fill:#d4d6dd;fill-rule:nonzero"/>
    <path d="M3704.45 2468.8c-682.86 0-1235.65-552.79-1235.65-1235.65L3704.45 2468.8c0-682.86-552.8-1235.65-1235.65-1235.65" style="fill:#dcdee3;fill-rule:nonzero"/>
    <path d="M2468.8 2468.8c-682.86 0-1235.65-552.79-1235.65-1235.65L2468.8 2468.8c0-682.86-552.79-1235.65-1235.65-1235.65" style="fill:#fefefe;fill-rule:nonzero"/>
    <path d="M1235.65 1235.65c0 682.86-552.8 1235.65-1235.65 1235.65l1235.65-1235.65C552.79 1235.65 0 1788.44 0 2468.8" style="fill:#f0f1f3;fill-rule:nonzero"/>
    <path d="M22221.7 617.83c0 340.17-275.14 617.82-617.83 617.82l617.83-617.83c-340.18 0-617.83 277.65-617.83 617.83" style="fill:#71778e;fill-rule:nonzero"/>
    <path d="M21603.8 617.83c0 340.17-275.14 617.82-617.83 617.82l617.83-617.83c-340.18 0-617.83 277.65-617.83 617.83" style="fill:#7e8399;fill-rule:nonzero"/>
    <path d="M22221.7 0c0 340.18-275.14 617.83-617.83 617.83L22221.7 0c-340.18 0-617.83 277.65-617.83 617.83" style="fill:#8b90a3;fill-rule:nonzero"/>
    <path d="M21603.8 617.83c-340.18 0-617.83-275.15-617.83-617.83l617.83 617.83c0-342.68-275.14-617.83-615.32-617.83" style="fill:#80859a;fill-rule:nonzero"/>
    <path d="M20988.5 617.83c0 340.17-275.15 617.82-617.83 617.82l617.83-617.83c-340.18 0-617.83 277.65-617.83 617.83" style="fill:#f0eeee;fill-rule:nonzero"/>
    <path d="M20370.7 617.83c0 340.17-275.14 617.82-617.83 617.82l617.83-617.83c-340.18 0-617.83 277.65-617.83 617.83" style="fill:#999eae;fill-rule:nonzero"/>
    <path d="M20988.5 0c0 340.18-275.15 617.83-617.83 617.83L20988.5 0c-340.18 0-617.83 277.65-617.83 617.83" style="fill:#f6f5f5;fill-rule:nonzero"/>
    <path d="M20370.7 0c0 340.18-275.14 617.83-617.83 617.83L20370.7 0c-340.18 0-617.83 277.65-617.83 617.83" style="fill:#fcfbfb;fill-rule:nonzero"/>
    <path d="M19752.9 0c0 682.86-552.8 1235.65-1235.65 1235.65L19752.9 0c-682.86 0-1235.65 552.8-1235.65 1235.65" style="fill:#dadbe2;fill-rule:nonzero"/>
    <path d="M18519.7 1235.65c-682.86 0-1235.65-552.8-1235.65-1235.65l1235.65 1235.65C18517.2 552.79 17964.4 0 17284.05 0" style="fill:#afb3c0;fill-rule:nonzero"/>
    <path d="M17284.1 0c0 682.86-552.8 1235.65-1235.65 1235.65L17284.1 0c-682.86 0-1235.65 552.8-1235.65 1235.65" style="fill:#f0eeee;fill-rule:nonzero"/>
    <path d="M16048.4 0c0 682.86-552.8 1235.65-1235.65 1235.65L16048.4 0c-682.86 0-1235.65 552.8-1235.65 1235.65" style="fill:#e9e5e5;fill-rule:nonzero"/>
    <path d="M14815.3 1235.65c-340.18 0-617.83-275.15-617.83-617.83l617.83 617.83c0-340.18-277.65-617.83-617.83-617.83" style="fill:#f9f8f8;fill-rule:nonzero"/>
    <path d="M14197.5 1235.65c-340.18 0-617.83-275.15-617.83-617.83l617.83 617.83c0-340.18-277.65-617.83-617.83-617.83" style="fill:#9095a7;fill-rule:nonzero"/>
    <path d="M14815.3 0c0 340.18-275.15 617.83-617.83 617.83L14815.3 0c-340.18 0-617.83 277.65-617.83 617.83" style="fill:#e8e5e5;fill-rule:nonzero"/>
    <path d="M14197.5 0c0 340.18-275.14 617.83-617.83 617.83L14197.5 0c-340.18 0-617.83 275.15-617.83 617.83" style="fill:#d3d5dc;fill-rule:nonzero"/>
    <path d="M13579.6 1235.65c-682.86 0-1235.65-552.8-1235.65-1235.65l1235.65 1235.65C13579.6 552.79 13026.8 0 12343.95 0" style="fill:#d7d9df;fill-rule:nonzero"/>
    <path d="M12346.5 0c0 682.86-552.79 1235.65-1235.65 1235.65L12346.5 0c-682.86 0-1235.65 552.8-1235.65 1235.65" style="fill:#f1efef;fill-rule:nonzero"/>
    <path d="M11110.8 1235.65c-682.86 0-1235.65-552.8-1235.65-1235.65l1235.65 1235.65C11110.8 552.79 10558 0 9875.15 0" style="fill:#ced0d8;fill-rule:nonzero"/>
    <path d="M9877.67 1235.65c-682.86 0-1235.65-552.8-1235.65-1235.65l1235.65 1235.65C9877.67 552.79 9324.87 0 8642.02 0" style="fill:#e6e3e3;fill-rule:nonzero"/>
    <path d="M8642.04 0c0 682.86-552.79 1235.65-1235.65 1235.65L8642.04 0c-682.86 0-1235.65 552.8-1235.65 1235.65" style="fill:#acb0be;fill-rule:nonzero"/>
    <path d="M7406.38 0c0 682.86-552.8 1235.65-1235.65 1235.65L7406.38 0c-682.86 0-1235.65 552.8-1235.65 1235.65" style="fill:#e7e3e3;fill-rule:nonzero"/>
    <path d="M6173.25 1235.65C5490.39 1235.65 4937.6 682.85 4937.6 0l1235.65 1235.65C6173.25 552.79 5620.46 0 4937.6 0" style="fill:#e7e4e4;fill-rule:nonzero"/>
    <path d="M4937.58 0c0 682.86-552.79 1235.65-1235.65 1235.65L4937.58 0c-682.86 0-1235.65 552.8-1235.65 1235.65" style="fill:#ecedf0;fill-rule:nonzero"/>
    <path d="M3704.45 1235.65c-340.18 0-617.83-275.15-617.83-617.83l617.83 617.83c0-340.18-277.65-617.83-617.83-617.83" style="fill:#d5d6dd;fill-rule:nonzero"/>
    <path d="M3086.62 617.83c0 340.17-275.15 617.82-617.83 617.82l617.83-617.83c-340.18 0-617.83 277.65-617.83 617.83" style="fill:#afb3c0;fill-rule:nonzero"/>
    <path d="M3704.45 617.83c-340.18 0-617.83-275.15-617.83-617.83l617.83 617.83C3704.45 277.65 3426.8 0 3086.62 0" style="fill:#83889c;fill-rule:nonzero"/>
    <path d="M3086.62 617.83c-340.18 0-617.83-275.15-617.83-617.83l617.83 617.83C3086.62 277.65 2808.97 0 2468.79 0" style="fill:#737990;fill-rule:nonzero"/>
    <path d="M2468.8 1235.65c-340.18 0-617.83-275.15-617.83-617.83l617.83 617.83c0-340.18-277.65-617.83-617.83-617.83" style="fill:#9a9eaf;fill-rule:nonzero"/>
    <path d="M1850.97 1235.65c-340.18 0-617.83-275.15-617.83-617.83l617.83 617.83a615.96 615.96 0 0 0-617.83-617.83" style="fill:#f1eeee;fill-rule:nonzero"/>
    <path d="M2468.8 617.83c-340.18 0-617.83-277.65-617.83-617.83l617.83 617.83C2468.8 277.65 2193.66 0 1850.97 0" style="fill:#8f94a6;fill-rule:nonzero"/>
    <path d="M1850.97 0c0 340.18-275.14 617.83-617.83 617.83L1850.97 0c-340.18 0-617.83 277.65-617.83 617.83" style="fill:#f2f0f0;fill-rule:nonzero"/>
    <path d="M1233.15 617.83c0 340.17-275.14 617.82-617.82 617.82l617.82-617.83c-340.18 0-617.82 277.65-617.82 617.83" style="fill:#f2f0f0;fill-rule:nonzero"/>
    <path d="M617.83 1235.65C275.15 1235.65 0 958 0 617.82l617.83 617.83c0-340.18-277.65-617.83-617.83-617.83" style="fill:#898ea1;fill-rule:nonzero"/>
    <path d="M1233.15 617.83C892.97 617.83 615.33 342.68 615.33 0l617.82 617.83C1233.15 277.65 958.01 0 617.83 0" style="fill:#e6e7eb;fill-rule:nonzero"/>
    <path d="M617.83 0c0 340.18-275.15 617.83-617.83 617.83L617.83 0C275.15 0 0 277.65 0 617.83" style="fill:#c8cad4;fill-rule:nonzero"/>
</svg>
